<svg xmlns:dc="http://purl.org/dc/elements/1.1/" xmlns:cc="http://creativecommons.org/ns#" xmlns:rdf="http://www.w3.org/1999/02/22-rdf-syntax-ns#" xmlns:svg="http://www.w3.org/2000/svg" xmlns="http://www.w3.org/2000/svg" xmlns:sodipodi="http://sodipodi.sourceforge.net/DTD/sodipodi-0.dtd" xmlns:inkscape="http://www.inkscape.org/namespaces/inkscape" viewBox="0 0 16.933333 21.1666675" version="1.1" x="0px" y="0px"><svg:g transform="translate(0,6.35)"><svg:path style="color:#000000;font-style:normal;font-variant:normal;font-weight:normal;font-stretch:normal;font-size:medium;line-height:normal;font-family:sans-serif;font-variant-ligatures:normal;font-variant-position:normal;font-variant-caps:normal;font-variant-numeric:normal;font-variant-alternates:normal;font-feature-settings:normal;text-indent:0;text-align:start;text-decoration:none;text-decoration-line:none;text-decoration-style:solid;text-decoration-color:#000000;letter-spacing:normal;word-spacing:normal;text-transform:none;writing-mode:lr-tb;direction:ltr;text-orientation:mixed;dominant-baseline:auto;baseline-shift:baseline;text-anchor:start;white-space:normal;shape-padding:0;clip-rule:nonzero;display:inline;overflow:visible;visibility:visible;opacity:1;isolation:auto;mix-blend-mode:normal;color-interpolation:sRGB;color-interpolation-filters:linearRGB;solid-color:#000000;solid-opacity:1;vector-effect:none;fill:#584BC5;fill-opacity:1;fill-rule:nonzero;stroke:none;stroke-width:0.5291667;stroke-linecap:round;stroke-linejoin:round;stroke-miterlimit:4;stroke-dasharray:none;stroke-dashoffset:0;stroke-opacity:1;color-rendering:auto;image-rendering:auto;shape-rendering:auto;text-rendering:auto;enable-background:accumulate" d="m 6.6450723,-4.3220024 a 0.26460981,0.26460981 0 0 0 -0.2382282,0.26355 v 3.04322 H 1.0572999 A 0.26460981,0.26460981 0 0 0 0.79375106,-0.74961244 V 5.9042476 a 0.26460981,0.26460981 0 0 0 0.26354884,0.26562 h 1.1565175 v 2.12131 a 0.26460981,0.26460981 0 0 0 0.4511358,0.18759 l 2.3083863,-2.3089 h 5.2870155 a 0.26460981,0.26460981 0 0 0 0.264067,-0.26562 v -3.04271 h 1.435571 l 2.30632,2.30839 a 0.26460981,0.26460981 0 0 0 0.453202,-0.18759 v -2.1208 h 1.154451 a 0.26460981,0.26460981 0 0 0 0.265618,-0.26355 v -6.65644 a 0.26460981,0.26460981 0 0 0 -0.265618,-0.26355 H 6.6724619 a 0.26460981,0.26460981 0 0 0 -0.02739,0 z m 0.2914544,0.52917 h 8.6733723 v 6.12521 h -1.156002 a 0.26460981,0.26460981 0 0 0 -0.263548,0.26561 v 1.7477 l -1.933732,-1.93528 a 0.26460981,0.26460981 0 0 0 -0.187586,-0.078 H 6.9365267 v -3.08199004 z m 4.4328053,1.07693 c -0.184142,-0.009 -0.371292,0.0215 -0.548288,0.0951 -0.471985,0.19625 -0.781346,0.65881 -0.77928,1.16995 a 0.2646503,0.2646503 0 1 0 0.529167,-0.002 c -0.0012,-0.29815 0.1779,-0.56508 0.453202,-0.67955 0.275301,-0.11447 0.590444,-0.051 0.800986,0.1602 0.210542,0.21111 0.271272,0.52548 0.156062,0.80047 -0.111556,0.26626996 -0.366969,0.43807996 -0.653706,0.44699996 a 0.26460981,0.26460981 0 0 0 -0.0052,-5.2e-4 0.26460981,0.26460981 0 0 0 -0.02843,-0.001 0.26460981,0.26460981 0 0 0 -0.258897,0.24391 0.26465188,0.26465188 0 0 0 -5.19e-4,0.005 0.26460981,0.26460981 0 0 0 0,0.002 0.26465188,0.26465188 0 0 0 0,0.005 0.26465188,0.26465188 0 0 0 -5.16e-4,0.007 0.26460981,0.26460981 0 0 0 0,0.007 0.26465188,0.26465188 0 0 0 0,0.006 v 0.61133 a 0.2646485,0.2646485 0 1 0 0.529167,0 v -0.38343 c 0.400735,-0.0838 0.743958,-0.35589 0.906404,-0.74363 0.19752,-0.47145996 0.09121,-1.01885996 -0.26975,-1.38078996 -0.2256,-0.22621 -0.523534,-0.35299 -0.83044,-0.36846 z M 1.3229177,-0.48606244 H 6.4068441 V 2.5979876 a 0.26460981,0.26460981 0 0 0 0.00155,0.0264 0.26460981,0.26460981 0 0 0 0.2640674,0.23926 h 3.3222776 v 2.77709 H 4.8622357 a 0.26460981,0.26460981 0 0 0 -0.1855179,0.078 l -1.9337337,1.93167 v -1.74615 A 0.26460981,0.26460981 0 0 0 2.4773689,5.6406976 H 1.3229177 Z m 9.9766513,1.12345 c -0.168338,0 -0.310576,0.14069 -0.310576,0.30902 0,0.16834004 0.14224,0.31110004 0.310576,0.31110004 0.168339,0 0.308507,-0.14276 0.308507,-0.31110004 0,-0.16834 -0.140171,-0.30902 -0.308507,-0.30902 z m -8.4708017,0.004 a 0.26500291,0.26500291 0 0 0 0.02739,0.52916004 H 4.737178 a 0.26465,0.26465 0 1 0 0,-0.52916004 H 2.856157 a 0.26460981,0.26460981 0 0 0 -0.02739,0 z m 0.02739,1.69137004 a 0.264645,0.264645 0 0 0 0,0.52916 H 4.737178 a 0.264645,0.264645 0 0 0 0,-0.52916 z m 0,1.48983 a 0.2648413,0.2648413 0 0 0 0,0.52968 h 5.6053433 a 0.2648413,0.2648413 0 1 0 0,-0.52968 z"/></svg:g><text x="0" y="31.933334" fill="#000000" font-size="5px" font-weight="bold" font-family="'Helvetica Neue', Helvetica, Arial-Unicode, Arial, Sans-serif">Created by Alzam</text><text x="0" y="36.933334" fill="#000000" font-size="5px" font-weight="bold" font-family="'Helvetica Neue', Helvetica, Arial-Unicode, Arial, Sans-serif">from the Noun Project</text></svg>